<svg width="24" height="24" viewBox="0 0 24 24" fill="none" xmlns="http://www.w3.org/2000/svg">
<path d="M16.5 21.0011C9.05625 21.0011 3 14.9449 3 7.50111C3.00281 6.22429 3.46919 4.99193 4.31243 4.03316C5.15566 3.07439 6.31837 2.45445 7.58437 2.28861C7.90711 2.25282 8.23284 2.32077 8.51435 2.4826C8.79586 2.64442 9.01851 2.89171 9.15 3.18861L11.0344 7.58548C11.1321 7.81371 11.1713 8.06273 11.1484 8.30995C11.1255 8.55717 11.0412 8.79474 10.9031 9.00111L9.34687 11.3824C10.0516 12.8125 11.2127 13.9671 12.6469 14.6636L15 13.098C15.2061 12.959 15.4443 12.8749 15.692 12.8536C15.9397 12.8323 16.1888 12.8744 16.4156 12.9761L20.8125 14.8511C21.1094 14.9826 21.3567 15.2052 21.5185 15.4868C21.6803 15.7683 21.7483 16.094 21.7125 16.4167C21.5467 17.6827 20.9267 18.8454 19.9679 19.6887C19.0092 20.5319 17.7768 20.9983 16.5 21.0011ZM7.77187 3.77923C6.86714 3.89553 6.03582 4.33762 5.43356 5.02271C4.8313 5.7078 4.4994 6.58893 4.5 7.50111C4.50248 10.6829 5.76756 13.7337 8.01746 15.9836C10.2674 18.2335 13.3182 19.4986 16.5 19.5011C17.4122 19.5017 18.2933 19.1698 18.9784 18.5675C19.6635 17.9653 20.1056 17.134 20.2219 16.2292L15.825 14.3542L13.4812 15.9199C13.2656 16.0624 13.0168 16.1468 12.7589 16.1649C12.501 16.183 12.2428 16.1341 12.0094 16.023C10.2628 15.1781 8.84994 13.7719 7.99687 12.0292C7.8844 11.7966 7.83393 11.5389 7.85036 11.281C7.86678 11.0231 7.94955 10.7738 8.09062 10.5574L9.65625 8.17611L7.77187 3.77923Z" fill="#202020"/>
</svg>
